<svg width="117" height="29" viewBox="0 0 117 29" fill="none" xmlns="http://www.w3.org/2000/svg">
<path fill-rule="evenodd" clip-rule="evenodd" d="M28.5092 8.50415H37.1097V11.0141H31.4385V12.6252H36.5647V14.9486H31.4385V16.6445H37.1778V19.1544H28.4922V8.50415H28.5092Z" fill="black"/>
<path fill-rule="evenodd" clip-rule="evenodd" d="M38.6935 8.50415H41.6568V16.5597H46.8341V19.1544H38.6935V8.50415Z" fill="black"/>
<path fill-rule="evenodd" clip-rule="evenodd" d="M48.1114 8.50415H56.7118V11.0141H51.0406V12.6252H56.1669V14.9486H51.0406V16.6445H56.78V19.1544H48.0944V8.50415H48.1114Z" fill="black"/>
<path fill-rule="evenodd" clip-rule="evenodd" d="M57.6484 13.8292C57.6484 10.7257 60.0497 8.28357 63.2856 8.28357C65.4655 8.28357 66.8279 9.23328 67.7816 10.5391L65.6187 12.2181C65.0056 11.4549 64.2904 10.9801 63.2685 10.9801C61.7698 10.9801 60.7139 12.235 60.7139 13.8292C60.7139 15.4233 61.7698 16.6783 63.2685 16.6783C64.3755 16.6783 65.0397 16.1526 65.6869 15.3894L67.9179 16.9666C66.9131 18.3573 65.5506 19.3748 63.1834 19.3748C60.1008 19.3748 57.6484 17.0344 57.6484 13.8292Z" fill="black"/>
<path fill-rule="evenodd" clip-rule="evenodd" d="M71.7838 11.0989H68.582V8.50415H77.9659V11.0989H74.7641V19.1544H71.8008V11.0989H71.7838Z" fill="black"/>
<path fill-rule="evenodd" clip-rule="evenodd" d="M79.2433 8.50415H84.3014C85.9363 8.50415 87.0603 8.92813 87.7926 9.64041C88.4228 10.2679 88.7463 11.0819 88.7463 12.1673C88.7463 13.7954 87.8778 14.8808 86.5494 15.4404L89.104 19.1544H85.6638L83.518 15.9322H82.2236V19.1544H79.2603V8.50415H79.2433ZM84.1652 13.6088C85.17 13.6088 85.749 13.117 85.749 12.3199C85.749 11.4889 85.1359 11.0649 84.1481 11.0649H82.2067V13.6258H84.1652V13.6088Z" fill="black"/>
<path fill-rule="evenodd" clip-rule="evenodd" d="M90.296 8.50415H93.2764V19.1544H90.296V8.50415Z" fill="black"/>
<path fill-rule="evenodd" clip-rule="evenodd" d="M94.5366 13.8292C94.5366 10.7257 96.9379 8.28357 100.174 8.28357C102.354 8.28357 103.716 9.23328 104.67 10.5391L102.507 12.2181C101.894 11.4549 101.179 10.9801 100.157 10.9801C98.658 10.9801 97.6021 12.235 97.6021 13.8292C97.6021 15.4233 98.658 16.6783 100.157 16.6783C101.264 16.6783 101.928 16.1526 102.575 15.3894L104.806 16.9666C103.801 18.3573 102.439 19.3748 100.072 19.3748C97.0061 19.3748 94.5366 17.0344 94.5366 13.8292Z" fill="black"/>
<path fill-rule="evenodd" clip-rule="evenodd" d="M109.438 8.43628H112.3L116.847 19.1544H113.662L112.879 17.255H108.757L107.991 19.1544H104.874L109.438 8.43628ZM112.044 14.9485L110.852 11.9128L109.643 14.9485H112.044Z" fill="black"/>
<path fill-rule="evenodd" clip-rule="evenodd" d="M21.3904 1.06847C21.9354 1.06847 22.3782 1.50941 22.3782 2.0521V19.7404C22.3782 21.5041 21.3393 23.1492 19.7555 23.9123L11.717 27.779L3.67862 23.9123C2.07774 23.1492 1.05591 21.5041 1.05591 19.7404V2.03514C1.05591 1.49245 1.4987 1.05151 2.04368 1.05151H21.3904V1.06847ZM21.3905 0.0509033H2.0267C0.91971 0.0509033 0.0170898 0.949734 0.0170898 2.05207V19.7404C0.0170898 21.8942 1.27735 23.8953 3.21884 24.8281L11.7001 28.9152L20.1813 24.8281C22.1228 23.8953 23.383 21.8942 23.383 19.7404V2.03511C23.383 0.932775 22.4974 0.0509033 21.3905 0.0509033Z" fill="#F01616"/>
<path fill-rule="evenodd" clip-rule="evenodd" d="M19.4489 23.3187L11.7 27.0497L3.9511 23.3187C2.57162 22.6573 1.68604 21.2497 1.68604 19.7234V2.37429C1.68604 2.00119 1.99259 1.71289 2.35023 1.71289H21.0328C21.4074 1.71289 21.697 2.01815 21.697 2.37429V19.7234C21.714 21.2497 20.8454 22.6573 19.4489 23.3187Z" fill="#F01616"/>
<path fill-rule="evenodd" clip-rule="evenodd" d="M19.2957 4.54506H18.4101H17.6437V5.20647H16.2302L15.5149 5.91875V8.44565H12.3983V7.68249H13.3179L14.0332 6.97021V5.56261H14.6974V4.79945V3.91758V3.15442H13.931H12.7389H11.9725V3.91758V4.79945V5.56261H12.6367V6.3088H10.7633V5.56261H11.4275V4.79945V3.91758V3.15442H10.6612H9.46902H8.70264V3.91758V4.79945V5.56261H9.36683V6.97021L10.0821 7.68249H11.0018V8.44565H7.88517V5.91875L7.16989 5.20647H5.75635V4.54506H4.98998H4.10439H3.33801V5.30822V6.49535V7.25851H4.10439H4.98998H5.75635V6.59711H6.5057V8.46261H5.75635V7.8012H4.98998H4.10439H3.33801V8.56436V9.75149V10.5147H4.10439H4.98998H5.75635V9.85325H6.5057V11.7187H5.75635V11.0234H4.98998H4.10439H3.33801V11.7866V12.9737V13.7369H4.10439H4.98998H5.75635V13.0585H7.16989L7.88517 12.3462V9.81933H9.41793V15.6024H7.68081L6.96552 16.3147V17.7901H6.04587L5.33059 18.5024V19.91H4.6664V20.6731V21.555V22.3182H5.43277H6.62491H7.39129V21.538V20.6562V19.893H6.7271V19.1638H8.60046V19.91H7.93627V20.6731V21.555V22.3182H8.68561H9.87775H10.6441V21.538V20.6562V19.893H9.97993V18.4854L9.26465 17.7731H8.345V16.9591H15.0721V17.7731H14.1524L13.4371 18.4854V19.893H12.7729V20.6562V21.538V22.3012H13.5393H14.7315H15.4978V21.538V20.6562V19.893H14.8166V19.1638H16.69V19.91H16.0258V20.6731V21.555V22.3182H16.7922H17.9843H18.7507V21.538V20.6562V19.893H18.0865V18.4854L17.3712 17.7731H16.4516V16.2977L15.7363 15.5854H13.9991V9.81933H15.5319V12.3462L16.2472 13.0585H17.6607V13.7199H18.4271H19.3127H20.0791V12.9568V11.7696V11.0234H19.3127H18.4271H17.6607V11.6848H16.9114V9.81933H17.6607V10.4807H18.4271H19.3127H20.0791V9.71758V8.53044V7.76728H19.3127H18.4271H17.6607V8.42869H16.9114V6.56319H17.6607V7.22459H18.4271H19.3127H20.0791V6.46144V5.2743V4.51114H19.2957V4.54506ZM12.7389 3.93457H13.931V4.81644H12.7389V3.93457ZM9.48608 3.93457H10.6782V4.81644H9.48608V3.93457ZM5.00705 6.49536H4.12146V5.30823H5.00705V6.49536ZM5.00705 9.7345H4.12146V8.54736H5.00705V9.7345ZM5.00705 12.9568H4.12146V11.7697H5.00705V12.9568ZM6.62488 21.538H5.43274V20.6561H6.62488V21.538ZM9.87781 21.538H8.68567V20.6561H9.87781V21.538ZM14.7314 21.538H13.5393V20.6561H14.7314V21.538ZM17.9673 21.538H16.7751V20.6561H17.9673V21.538ZM12.6196 15.6024H10.7974V9.81934H12.6367V15.6024H12.6196ZM18.41 11.7697H19.2956V12.9568H18.41V11.7697ZM18.41 8.54736H19.2956V9.7345H18.41V8.54736ZM19.2956 6.49536H18.41V5.30823H19.2956V6.49536Z" fill="white"/>
</svg>
