<svg width="32" height="32" viewBox="0 0 32 32" fill="none" xmlns="http://www.w3.org/2000/svg">
<path d="M0 0H32V32H0V0Z" fill="white"/>
<path opacity="0.01" fill-rule="evenodd" clip-rule="evenodd" d="M16 32C24.8366 32 32 24.8366 32 16C32 7.16344 24.8366 0 16 0C7.16344 0 0 7.16344 0 16C0 24.8366 7.16344 32 16 32Z" fill="#EEEEEE"/>
<path fill-rule="evenodd" clip-rule="evenodd" d="M16.6385 26.6504V16.3326H20.1323L20.6538 12.2938H16.6385V9.72235C16.6385 8.55395 16.9662 7.76275 18.6462 7.76275H20.7923V4.15635C19.7575 4.05009 18.7177 3.99765 17.6769 3.99995C14.5892 3.99995 12.4846 5.87675 12.4846 9.32215V12.2938H9V16.3326H12.4846V26.6504H16.6385Z" fill="#808080"/>
</svg>
