<svg width="45" height="42" viewBox="0 0 45 42" fill="none" xmlns="http://www.w3.org/2000/svg">
<path fill-rule="evenodd" clip-rule="evenodd" d="M42.375 12.826C41.317 10.325 39.803 8.079 37.875 6.151C35.947 4.223 33.701 2.709 31.2 1.651C28.611 0.555 25.861 0 23.026 0V2C25.592 2 28.08 2.503 30.421 3.493C32.684 4.45 34.716 5.82 36.461 7.565C38.206 9.31 39.576 11.343 40.533 13.605C41.523 15.947 42.026 18.434 42.026 21C42.026 23.566 41.523 26.054 40.533 28.395C39.576 30.658 38.206 32.69 36.461 34.435C34.716 36.18 32.684 37.551 30.421 38.508C25.738 40.488 20.313 40.488 15.631 38.508C13.368 37.551 11.336 36.18 9.591 34.435C7.846 32.69 6.476 30.658 5.519 28.395C4.528 26.054 4.026 23.566 4.026 21C4.026 18.831 4.407 16.724 5.116 14.707L8.367 16.816L8.884 6.858L0 11.388L3.397 13.592C2.502 15.957 2.026 18.441 2.026 21C2.026 23.835 2.581 26.585 3.677 29.175C4.734 31.676 6.249 33.921 8.177 35.849C10.105 37.778 12.351 39.292 14.852 40.349C17.441 41.445 20.191 42 23.026 42C25.861 42 28.611 41.445 31.2 40.349C33.701 39.292 35.947 37.778 37.875 35.849C39.803 33.921 41.317 31.676 42.375 29.175C43.471 26.585 44.026 23.835 44.026 21C44.026 18.165 43.471 15.415 42.375 12.826Z" fill="#EEEEEE"/>
</svg>
