<svg width="32" height="32" viewBox="0 0 32 32" fill="none" xmlns="http://www.w3.org/2000/svg">
<path d="M0 0H32V32H0V0Z" fill="white"/>
<path opacity="0.01" fill-rule="evenodd" clip-rule="evenodd" d="M16 32C24.8366 32 32 24.8366 32 16C32 7.16344 24.8366 0 16 0C7.16344 0 0 7.16344 0 16C0 24.8366 7.16344 32 16 32Z" fill="#EEEEEE"/>
<path fill-rule="evenodd" clip-rule="evenodd" d="M15.9877 4.30383C12.732 4.30383 12.3237 4.3175 11.0452 4.37492C9.76923 4.43264 8.89785 4.63254 8.13508 4.9251C7.34708 5.22768 6.67846 5.63234 6.012 6.29036C5.34554 6.94839 4.93569 7.60854 4.62923 8.38657C4.33292 9.13968 4.13015 10 4.072 11.2599C4.01385 12.5225 4 12.9253 4 16.1398C4 19.3543 4.01385 19.7574 4.072 21.0197C4.13015 22.2798 4.33292 23.1402 4.62923 23.8927C4.93569 24.6713 5.34554 25.3315 6.012 25.9895C6.67846 26.6475 7.34708 27.0522 8.13508 27.3545C8.89785 27.647 9.76923 27.8472 11.0452 27.9049C12.3237 27.9624 12.732 27.976 15.9877 27.976C19.2434 27.976 19.6517 27.9624 20.9302 27.9049C22.2062 27.8472 23.0775 27.647 23.8403 27.3545C24.6286 27.0522 25.2969 26.6475 25.9634 25.9895C26.6298 25.3315 27.0397 24.6713 27.3462 23.8927C27.6425 23.1402 27.8452 22.2798 27.9034 21.0197C27.9618 19.7574 27.9754 19.3543 27.9754 16.1398C27.9754 12.9253 27.9618 12.5225 27.9034 11.2599C27.8452 10 27.6425 9.13968 27.3462 8.38657C27.0397 7.60854 26.6298 6.94839 25.9634 6.29036C25.2969 5.63234 24.6286 5.22768 23.8403 4.9251C23.0775 4.63254 22.2062 4.43264 20.9302 4.37492C19.6517 4.3175 19.2434 4.30383 15.9877 4.30383ZM15.9877 6.43649C19.1886 6.43649 19.5677 6.44864 20.832 6.50545C22.0006 6.55801 22.6354 6.75092 23.0578 6.91315C23.6172 7.12763 24.0166 7.38434 24.4363 7.79842C24.8557 8.21249 25.1154 8.60682 25.3329 9.15912C25.4969 9.57624 25.6923 10.203 25.7455 11.3571C25.8034 12.6051 25.8154 12.9797 25.8154 16.1398C25.8154 19.3002 25.8034 19.6748 25.7455 20.9225C25.6923 22.0766 25.4969 22.7033 25.3329 23.1204C25.1154 23.673 24.8557 24.0674 24.4363 24.4815C24.0166 24.8955 23.6172 25.1519 23.0578 25.3667C22.6354 25.5286 22.0006 25.7216 20.832 25.7744C19.568 25.8312 19.1889 25.8431 15.9877 25.8431C12.7868 25.8431 12.4077 25.8312 11.1437 25.7744C9.97477 25.7216 9.34031 25.5286 8.91754 25.3667C8.35815 25.1519 7.95877 24.8955 7.53938 24.4815C7.12 24.0674 6.86 23.673 6.64246 23.1204C6.47846 22.7033 6.28308 22.0766 6.22985 20.9225C6.17231 19.6748 6.16 19.3002 6.16 16.1398C6.16 12.9797 6.17231 12.6051 6.22985 11.3571C6.28308 10.203 6.47846 9.57624 6.64246 9.15912C6.86 8.60682 7.12 8.21249 7.53938 7.79842C7.95877 7.38434 8.35815 7.12763 8.91754 6.91315C9.34031 6.75092 9.97477 6.55801 11.1437 6.50545C12.4077 6.44864 12.7868 6.43649 15.9877 6.43649Z" fill="#808080"/>
<path fill-rule="evenodd" clip-rule="evenodd" d="M15.9877 20.0852C13.781 20.0852 11.992 18.3189 11.992 16.1398C11.992 13.9609 13.781 12.1944 15.9877 12.1944C18.1945 12.1944 19.9837 13.9609 19.9837 16.1398C19.9837 18.3189 18.1945 20.0852 15.9877 20.0852ZM15.9877 10.062C12.588 10.062 9.83203 12.7831 9.83203 16.1398C9.83203 19.4967 12.588 22.2179 15.9877 22.2179C19.3874 22.2179 22.1437 19.4967 22.1437 16.1398C22.1437 12.7831 19.3874 10.062 15.9877 10.062Z" fill="#808080"/>
<path fill-rule="evenodd" clip-rule="evenodd" d="M23.8255 9.82174C23.8255 10.6061 23.1815 11.2423 22.387 11.2423C21.5925 11.2423 20.9482 10.6061 20.9482 9.82174C20.9482 9.03734 21.5925 8.40149 22.387 8.40149C23.1815 8.40149 23.8255 9.03734 23.8255 9.82174Z" fill="#808080"/>
</svg>
