<svg width="32" height="32" viewBox="0 0 32 32" fill="none" xmlns="http://www.w3.org/2000/svg">
<path d="M0 0H32V32H0V0Z" fill="white"/>
<path opacity="0.01" fill-rule="evenodd" clip-rule="evenodd" d="M16 32C24.8366 32 32 24.8366 32 16C32 7.16344 24.8366 0 16 0C7.16344 0 0 7.16344 0 16C0 24.8366 7.16344 32 16 32Z" fill="#EEEEEE"/>
<path fill-rule="evenodd" clip-rule="evenodd" d="M12.2163 26C20.9012 26 25.6501 18.6885 25.6501 12.3518C25.6501 12.1429 25.6501 11.9341 25.6403 11.7352C26.5607 11.0586 27.3636 10.2131 28 9.24827C27.1579 9.62618 26.2473 9.88482 25.2878 10.0042C26.2669 9.40733 27.0111 8.47225 27.3636 7.34817C26.453 7.89529 25.4444 8.29319 24.3674 8.51204C23.5057 7.57696 22.2818 7 20.9208 7C18.3163 7 16.2014 9.14879 16.2014 11.7948C16.2014 12.1728 16.2405 12.5408 16.3287 12.889C12.4023 12.6901 8.92635 10.7801 6.596 7.87539C6.19455 8.58168 5.95956 9.40733 5.95956 10.2827C5.95956 11.944 6.79183 13.4162 8.06471 14.2718C7.29119 14.2518 6.56662 14.033 5.93018 13.675V13.7346C5.93018 16.0624 7.55556 17.9921 9.71946 18.4398C9.3278 18.5493 8.90677 18.6089 8.47595 18.6089C8.17241 18.6089 7.87867 18.5791 7.58493 18.5194C8.1822 20.4293 9.92507 21.812 11.9911 21.8518C10.3755 23.1351 8.33887 23.901 6.12601 23.901C5.74415 23.901 5.37207 23.8812 5 23.8314C7.06599 25.2042 9.553 26 12.2163 26Z" fill="#808080"/>
</svg>
